<?xml version="1.0"?>
<svg width="60" height="60" xmlns="http://www.w3.org/2000/svg" xmlns:svg="http://www.w3.org/2000/svg">
 <!-- Created with SVG-edit - https://github.com/SVG-Edit/svgedit-->
 <g class="layer">
  <title>Layer 1</title>
  <path d="m40.33,26.44c0,0 1.83,-7.74 0,-10.36c-1.83,-2.62 -2.56,-4.37 -6.58,-5.62s-2.56,-1 -5.48,-0.87c-2.92,0.13 -5.36,1.75 -5.36,2.62c0,0 -1.83,0.13 -2.56,0.88c-0.73,0.75 -1.95,4.24 -1.95,5.12s0.61,6.74 1.22,7.99l-0.73,0.25c-0.61,7.24 2.44,8.11 2.44,8.11c1.1,6.74 2.19,3.87 2.19,5.62s-1.1,1.12 -1.1,1.12s-0.97,2.75 -3.41,3.74c-2.44,1 -15.96,6.36 -17.06,7.49c-1.1,1.13 -0.97,6.37 -0.97,6.37l57.99,0c0,0 0.13,-5.24 -0.97,-6.37c-1.1,-1.13 -14.63,-6.49 -17.06,-7.49c-2.44,-1 -3.41,-3.74 -3.41,-3.74s-1.1,0.62 -1.1,-1.12s1.1,1.12 2.2,-5.62c0,0 3.04,-0.88 2.44,-8.11l-0.73,0z" fill="#005fbf" id="svg_3" stroke="#000000" stroke-opacity="0"/>
 </g>
</svg>