<?xml version="1.0"?>
<svg width="60" height="60" xmlns="http://www.w3.org/2000/svg" xmlns:svg="http://www.w3.org/2000/svg">
 <!-- Created with SVG-edit - https://github.com/SVG-Edit/svgedit-->
 <defs>
  <linearGradient id="svg_6" x1="0" x2="1" y1="0" y2="0">
   <stop id="jq_stop_8585" offset="0" stop-color="#892525"/>
   <stop id="jq_stop_49" offset="0" stop-color="#45cdcd"/>
   <stop id="jq_stop_9065" offset="0" stop-color="#45cdcd"/>
   <stop id="jq_stop_408" offset="1" stop-color="#258989"/>
  </linearGradient>
  <linearGradient id="svg_11" x1="0" x2="1" y1="0" y2="0">
   <stop id="svg_5" offset="0" stop-color="#45cdcd"/>
   <stop id="svg_2" offset="0" stop-color="#892525"/>
   <stop id="svg_13" offset="0" stop-color="#1c7575"/>
   <stop id="svg_21" offset="1" stop-color="#258989"/>
  </linearGradient>
  <linearGradient id="svg_17" x1="0" x2="1" y1="0" y2="0">
   <stop id="svg_8" offset="0" stop-color="#45cdcd"/>
   <stop id="svg_3" offset="0" stop-color="#892525"/>
   <stop id="svg_14" offset="0" stop-color="#91c3e2" stop-opacity="0.99"/>
   <stop id="svg_22" offset="1" stop-color="#258989"/>
  </linearGradient>
  <linearGradient id="svg_20" x1="0" x2="1" y1="0" y2="0">
   <stop id="svg_4" offset="0" stop-color="#892525"/>
   <stop id="svg_12" offset="0" stop-color="#45cdcd"/>
   <stop id="svg_15" offset="0" stop-color="#3f3f3f" stop-opacity="0.98"/>
   <stop id="svg_23" offset="1" stop-color="#258989"/>
  </linearGradient>
  <linearGradient id="svg_40" x1="0" x2="1" y1="0" y2="0">
   <stop id="svg_24" offset="0" stop-color="#45cdcd"/>
   <stop id="svg_34" offset="0" stop-color="#892525"/>
   <stop id="svg_36" offset="0" stop-color="#ad4545"/>
   <stop id="svg_39" offset="1" stop-color="#258989"/>
  </linearGradient>
 </defs>
 <g class="layer">
  <title>Layer 1</title>
  <path d="m32.87,40.17l-1.47,-5c0.44,-0.36 0.85,-0.75 1.22,-1.18l5.17,1.43c0.53,-0.75 1.01,-1.58 1.44,-2.43l-3.85,-3.61c0.19,-0.51 0.35,-1.06 0.47,-1.61l5.17,-1.25c0.03,-0.45 0.06,-0.94 0.06,-1.4s-0.03,-0.94 -0.06,-1.4l-5.17,-1.25c-0.13,-0.54 -0.28,-1.09 -0.47,-1.61l3.85,-3.61c-0.41,-0.85 -0.88,-1.67 -1.44,-2.43l-5.17,1.43c-0.38,-0.42 -0.79,-0.82 -1.22,-1.18l1.47,-5c-0.79,-0.51 -1.63,-0.97 -2.51,-1.4l-3.73,3.73c-0.53,-0.18 -1.1,-0.33 -1.66,-0.45l-1.28,-5c-0.47,-0.03 -0.97,-0.06 -1.44,-0.06s-0.97,0.03 -1.44,0.06l-1.28,5c-0.57,0.12 -1.12,0.27 -1.66,0.45l-3.73,-3.73c-0.88,0.42 -1.72,0.85 -2.51,1.4l1.47,5c-0.44,0.36 -0.85,0.75 -1.22,1.18l-5.17,-1.43c-0.53,0.75 -1.01,1.58 -1.44,2.43l3.85,3.61c-0.19,0.51 -0.35,1.06 -0.47,1.61l-5.17,1.25c-0.03,0.45 -0.06,0.94 -0.06,1.4s0.03,0.94 0.06,1.4l5.17,1.25c0.13,0.54 0.28,1.09 0.47,1.61l-3.85,3.61c0.41,0.85 0.88,1.67 1.44,2.43l5.17,-1.43c0.38,0.42 0.79,0.82 1.22,1.18l-1.47,5c0.79,0.51 1.63,0.97 2.51,1.4l3.73,-3.73c0.53,0.18 1.1,0.33 1.66,0.45l1.28,5c0.47,0.03 0.97,0.06 1.44,0.06s0.97,-0.03 1.44,-0.06l1.28,-5c0.57,-0.12 1.12,-0.27 1.66,-0.45l3.73,3.73c0.88,-0.42 1.72,-0.85 2.51,-1.4zm-10.62,-8.8c-3.57,0 -6.45,-2.79 -6.45,-6.25s2.88,-6.25 6.45,-6.25s6.45,2.79 6.45,6.25s-2.88,6.25 -6.45,6.25zm29.36,13.04c0.03,-1 -0.13,-2.03 -0.44,-3.03l2.35,-3.25c-0.35,-0.63 -0.75,-1.25 -1.22,-1.82l-4.01,0.82c-0.82,-0.66 -1.72,-1.18 -2.73,-1.55l-1.16,-3.82c-0.72,-0.12 -1.47,-0.18 -2.22,-0.18l-1.85,3.55c-0.53,0.09 -1.07,0.24 -1.56,0.42c-0.5,0.18 -0.94,0.39 -1.38,0.63l-3.79,-1.52c-0.57,0.48 -1.07,1 -1.53,1.58l1.72,3.61c-0.5,0.91 -0.82,1.88 -0.97,2.91l-3.57,1.94c0.03,0.69 0.16,1.43 0.31,2.12l3.98,0.94c0.44,0.97 1.04,1.82 1.72,2.55l-0.66,3.91c0.6,0.42 1.25,0.78 1.91,1.09l3.26,-2.43c1.01,0.27 2.07,0.36 3.17,0.27l2.76,2.94c0.38,-0.09 0.75,-0.21 1.12,-0.36c0.35,-0.12 0.66,-0.27 0.97,-0.39l0.06,-3.98c0.88,-0.63 1.6,-1.37 2.19,-2.21l4.1,-0.24c0.28,-0.66 0.53,-1.34 0.69,-2.03l-3.17,-2.55l-0.06,0.06l-0.02,0zm-7.89,3.67c-2.29,0.85 -4.83,-0.27 -5.7,-2.46s0.28,-4.67 2.54,-5.52c2.29,-0.85 4.83,0.27 5.7,2.46c0.88,2.21 -0.28,4.67 -2.54,5.52z" fill="url(#svg_6)" id="svg_9" stroke="#000000" stroke-opacity="0"/>
  <path d="m-234.5,-30.53l7.08,-3.79c-0.14,-1.39 -0.4,-2.75 -0.75,-4.11l-7.89,-1.1c-0.69,-1.65 -1.58,-3.18 -2.64,-4.6l3.01,-7.44c-0.98,-0.98 -2.07,-1.85 -3.18,-2.66l-6.68,4.23c-1.58,-0.84 -3.27,-1.48 -5.02,-1.88l-2.41,-7.56c-0.69,-0.06 -1.38,-0.12 -2.07,-0.12s-1.38,0.06 -2.07,0.12l-2.38,7.5c-1.81,0.41 -3.56,1.04 -5.16,1.88l-6.6,-4.17c-1.12,0.81 -2.18,1.71 -3.18,2.66l2.93,7.24c-1.15,1.48 -2.09,3.1 -2.81,4.83l-7.63,1.07c-0.34,1.33 -0.6,2.69 -0.75,4.11l6.85,3.65c0.09,1.94 0.4,3.79 0.95,5.56l-5.16,5.76c0.6,1.24 1.26,2.49 2.04,3.62l7.6,-1.65c1.23,1.36 2.67,2.58 4.24,3.56l-0.29,7.84c1.26,0.58 2.55,1.04 3.87,1.42l4.82,-6.25c0.86,0.12 1.72,0.17 2.61,0.17c0.95,0 1.89,-0.09 2.81,-0.2l4.85,6.28c1.35,-0.38 2.64,-0.87 3.87,-1.42l-0.29,-7.99c1.49,-0.98 2.84,-2.14 4.04,-3.47l7.8,1.68c0.77,-1.16 1.43,-2.37 2.04,-3.62l-5.33,-5.96c0.52,-1.65 0.8,-3.42 0.89,-5.24l-0.03,0.06l0.02,-0.01zm-11.79,9.09l-3.36,2.2l-2.07,-3.21c-1.06,0.41 -2.24,0.67 -3.44,0.67c-5.33,0 -9.64,-4.37 -9.64,-9.73c0,-5.38 4.33,-9.73 9.64,-9.73c5.33,0 9.64,4.37 9.64,9.73c0,2.69 -1.09,5.12 -2.81,6.89l2.07,3.18l-0.03,0z" fill="url(#svg_11)" id="svg_10" opacity="0.8" stroke="#000000" stroke-opacity="0" transform="matrix(1 0 0 1 0 0)"/>
  <g id="svg_18" opacity="0.8" transform="matrix(1 0 0 1 0 0)">
   <circle cx="12.34" cy="74.35" fill="url(#svg_17)" id="svg_1" r="14.29" stroke="#000000" stroke-opacity="0" transform="matrix(0 1.97098 -1.98847 0 -36.9647 42.7652)"/>
   <path d="m-187.86,57.3l-0.34,0l0,-0.32l-0.34,0l0,0.32l-0.34,0l0,0.32l0.34,0l0,0.32l0.34,0l0,-0.32l0.34,0" fill="url(#svg_6)" id="svg_7" stroke="#000000" stroke-opacity="0"/>
   <text fill="#b1e6ef" font-family="Serif" font-size="24" id="svg_16" stroke="#000000" stroke-opacity="0" stroke-width="0" text-anchor="middle" transform="matrix(1.98847 0 0 1.97098 -4.01401 4.8892)" x="-90.99" xml:space="preserve" y="39.69">+</text>
  </g>
  <path d="m120.78,1.57l-7.58,-7.31c1.02,-1.62 1.62,-3.52 1.62,-5.56c0,-5.94 -4.99,-10.75 -11.15,-10.75c-6.16,0 -11.15,4.81 -11.15,10.75c0,5.94 4.99,10.75 11.15,10.75c2.11,0 4.08,-0.58 5.76,-1.56l7.58,7.31l3.76,-3.63l0.01,0zm-24,-12.87c0.01,-3.67 3.09,-6.64 6.89,-6.65c3.81,0.01 6.89,2.98 6.89,6.65c-0.01,3.67 -3.09,6.64 -6.89,6.65c-3.81,-0.01 -6.89,-2.98 -6.89,-6.65z" fill="url(#svg_20)" id="svg_19" stroke="#000000" stroke-opacity="0" transform="matrix(1 0 0 1 0 0)"/>
  <path d="m-456.03,-211.53c3.36,6.44 4.01,8.39 2.9,8.66c-2.17,0.52 -1.73,3.48 1.3,8.86c3.81,6.75 11.26,10.89 18.26,10.15c2.72,-0.29 5.79,-0.88 6.83,-1.32c1.04,-0.44 0.4,0.38 -1.41,1.81c-9.08,7.17 -20.3,6.67 -29.25,-1.3c-3.57,-3.18 -8.48,-12.46 -8.48,-16.03c0,-1.01 -0.81,-1.99 -1.8,-2.18c-1.62,-0.3 -1.4,-1.11 2.16,-7.98c2.18,-4.2 4.23,-7.94 4.56,-8.31c0.33,-0.37 2.55,3.07 4.93,7.64zm28.85,12.41c-3.36,-6.44 -4.01,-8.39 -2.9,-8.66c2.17,-0.52 1.73,-3.48 -1.3,-8.86c-3.81,-6.75 -11.26,-10.89 -18.26,-10.15c-2.72,0.29 -5.79,0.88 -6.83,1.32c-1.04,0.44 -0.4,-0.38 1.41,-1.81c9.08,-7.17 20.3,-6.67 29.25,1.3c3.57,3.18 8.48,12.46 8.48,16.03c0,1.01 0.81,1.99 1.8,2.18c1.62,0.3 1.4,1.11 -2.16,7.98c-2.18,4.2 -4.23,7.94 -4.56,8.31c-0.33,0.37 -2.55,-3.07 -4.93,-7.64z" fill="url(#svg_11)" id="svg_25" opacity="0.8" stroke="#000000" stroke-opacity="0"/>
  <path d="m-822.18,123.5l-0.24,-0.04l0.09,-0.05c0.05,-0.03 0.09,-0.05 0.1,-0.05c0.01,-0.01 -0.15,-0.26 -0.17,-0.26c-0.01,0 -0.07,0.1 -0.14,0.22c-0.07,0.12 -0.14,0.21 -0.15,0.2c-0.19,-0.08 -0.34,-0.15 -0.34,-0.17c0,-0.01 0.06,-0.12 0.13,-0.25l0.13,-0.23l0.36,0l0.36,0l0.09,0.15l0.09,0.15l0.1,-0.05c0.07,-0.03 0.09,-0.04 0.08,-0.02c-0.08,0.21 -0.21,0.45 -0.23,0.45c-0.02,0 -0.14,-0.02 -0.27,-0.05l0.01,0zm-1.12,0.92c-0.09,-0.16 -0.17,-0.3 -0.18,-0.33c-0.01,-0.02 0.02,-0.11 0.06,-0.19l0.08,-0.15l-0.08,-0.05c-0.1,-0.06 -0.06,-0.08 0.21,-0.1l0.22,-0.02l0.08,0.22c0.05,0.12 0.09,0.24 0.1,0.26c0.01,0.02 -0.03,0.01 -0.08,-0.03l-0.1,-0.07l-0.07,0.13c-0.04,0.07 -0.07,0.14 -0.07,0.15c0,0.01 0.11,0.02 0.26,0.03l0.26,0.01l0.02,0.19c0.01,0.1 0.01,0.19 0.01,0.19c0,0 -0.12,0.01 -0.27,0.02l-0.27,0.02l-0.17,-0.29l-0.01,0.01zm1.02,0.28c-0.16,-0.24 -0.16,-0.22 0.07,-0.47l0.15,-0.16l-0.02,0.12l-0.02,0.12l0.17,0c0.09,0 0.17,-0.01 0.17,-0.02c0,-0.01 -0.05,-0.11 -0.11,-0.22c-0.06,-0.11 -0.11,-0.22 -0.11,-0.23c0,-0.03 0.33,-0.24 0.34,-0.23c0.01,0.01 0.07,0.12 0.13,0.24l0.12,0.23l-0.17,0.27c-0.09,0.15 -0.18,0.28 -0.2,0.3c-0.02,0.02 -0.11,0.04 -0.2,0.05c-0.18,0.02 -0.17,0.01 -0.2,0.16c0,0.03 -0.06,-0.03 -0.14,-0.16l0.02,0z" fill="url(#svg_11)" id="svg_27" opacity="0.8" stroke="#000000" stroke-opacity="0"/>
  <path d="m-659.01,234.13l-0.11,-0.02l0.04,-0.02c0.02,-0.01 0.04,-0.02 0.05,-0.03c0.01,-0.01 -0.07,-0.12 -0.08,-0.12c0,0 -0.03,0.05 -0.07,0.1c-0.03,0.06 -0.06,0.1 -0.07,0.1c-0.09,-0.04 -0.16,-0.07 -0.16,-0.08c0,-0.01 0.03,-0.06 0.06,-0.12l0.06,-0.11l0.17,0l0.17,0l0.04,0.07l0.04,0.07l0.05,-0.02c0.03,-0.02 0.04,-0.02 0.04,-0.01c-0.04,0.1 -0.1,0.21 -0.11,0.21c-0.01,0 -0.06,-0.01 -0.13,-0.02l0.01,0zm-0.53,0.44c-0.04,-0.07 -0.08,-0.14 -0.09,-0.16c0,-0.01 0.01,-0.05 0.03,-0.09l0.04,-0.07l-0.04,-0.02c-0.05,-0.03 -0.03,-0.04 0.1,-0.05l0.1,-0.01l0.04,0.11c0.02,0.06 0.04,0.11 0.05,0.12c0,0.01 -0.01,0 -0.04,-0.01l-0.05,-0.03l-0.03,0.06c-0.02,0.03 -0.03,0.07 -0.03,0.07c0,0 0.05,0.01 0.12,0.01l0.12,0l0.01,0.09c0,0.05 0.01,0.09 0.01,0.09c0,0 -0.06,0.01 -0.13,0.01l-0.13,0.01l-0.08,-0.14l0,0.01zm0.48,0.13c-0.07,-0.11 -0.08,-0.1 0.03,-0.23l0.07,-0.08l-0.01,0.06l-0.01,0.06l0.08,0c0.04,0 0.08,0 0.08,-0.01c0,0 -0.02,-0.05 -0.05,-0.11c-0.03,-0.05 -0.05,-0.1 -0.05,-0.11c0,-0.01 0.16,-0.12 0.16,-0.11c0,0 0.03,0.06 0.06,0.12l0.06,0.11l-0.08,0.13c-0.04,0.07 -0.09,0.13 -0.09,0.14c-0.01,0.01 -0.05,0.02 -0.09,0.02c-0.08,0.01 -0.08,0.01 -0.09,0.08c0,0.01 -0.03,-0.02 -0.07,-0.08l0,0.01z" fill="url(#svg_11)" id="svg_28" opacity="0.8" stroke="#000000" stroke-opacity="0"/>
  <path d="m-569.02,101.8l-0.11,-0.02l0.04,-0.02c0.02,-0.01 0.04,-0.02 0.05,-0.03c0.01,-0.01 -0.07,-0.12 -0.08,-0.12c0,0 -0.03,0.05 -0.07,0.1c-0.03,0.06 -0.06,0.1 -0.07,0.1c-0.09,-0.04 -0.16,-0.07 -0.16,-0.08c0,-0.01 0.03,-0.06 0.06,-0.12l0.06,-0.11l0.17,0l0.17,0l0.04,0.07l0.04,0.07l0.05,-0.02c0.03,-0.02 0.04,-0.02 0.04,-0.01c-0.04,0.1 -0.1,0.21 -0.11,0.21c-0.01,0 -0.06,-0.01 -0.13,-0.02l0.01,0zm-0.53,0.44c-0.04,-0.07 -0.08,-0.14 -0.09,-0.16c0,-0.01 0.01,-0.05 0.03,-0.09l0.04,-0.07l-0.04,-0.02c-0.05,-0.03 -0.03,-0.04 0.1,-0.05l0.1,-0.01l0.04,0.11c0.02,0.06 0.04,0.11 0.05,0.12c0,0.01 -0.01,0 -0.04,-0.01l-0.05,-0.03l-0.03,0.06c-0.02,0.03 -0.03,0.07 -0.03,0.07c0,0 0.05,0.01 0.12,0.01l0.12,0l0.01,0.09c0,0.05 0.01,0.09 0.01,0.09c0,0 -0.06,0.01 -0.13,0.01l-0.13,0.01l-0.08,-0.14l0,0.01zm0.48,0.13c-0.07,-0.11 -0.08,-0.1 0.03,-0.23l0.07,-0.08l-0.01,0.06l-0.01,0.06l0.08,0c0.04,0 0.08,0 0.08,-0.01c0,0 -0.02,-0.05 -0.05,-0.11c-0.03,-0.05 -0.05,-0.1 -0.05,-0.11c0,-0.01 0.16,-0.12 0.16,-0.11c0,0 0.03,0.06 0.06,0.12l0.06,0.11l-0.08,0.13c-0.04,0.07 -0.09,0.13 -0.09,0.14c-0.01,0.01 -0.05,0.02 -0.09,0.02c-0.08,0.01 -0.08,0.01 -0.09,0.08c0,0.01 -0.03,-0.02 -0.07,-0.08l0,0.01z" fill="url(#svg_11)" id="svg_29" opacity="0.8" stroke="#000000" stroke-opacity="0"/>
  <g id="svg_45" transform="matrix(1 0 0 1 0 0)">
   <g id="svg_48">
    <rect fill="url(#svg_40)" height="40.52" id="svg_30" opacity="0.8" stroke="#000000" stroke-opacity="0" width="35.38" x="-446.1" y="-25.02"/>
    <path d="m-425.27,-6.01l-2.13,-0.33l0.79,-0.36c0.43,-0.19 0.83,-0.39 0.87,-0.42c0.11,-0.09 -1.33,-1.99 -1.51,-1.99c-0.09,0 -0.64,0.73 -1.23,1.64c-0.61,0.91 -1.2,1.6 -1.35,1.56c-1.69,-0.58 -3.07,-1.17 -3.07,-1.31c0,-0.09 0.53,-0.95 1.18,-1.89l1.18,-1.71l3.22,0l3.22,0l0.84,1.13l0.84,1.13l0.87,-0.39c0.61,-0.27 0.84,-0.3 0.75,-0.12c-0.74,1.58 -1.86,3.42 -2.06,3.39c-0.13,-0.01 -1.2,-0.16 -2.38,-0.35l-0.01,0.01l0.01,0l-0.01,0l-0.01,0.01l-0.01,0zm-9.96,7.03c-0.82,-1.19 -1.55,-2.31 -1.62,-2.47c-0.08,-0.17 0.16,-0.8 0.53,-1.45l0.67,-1.14l-0.69,-0.35c-0.92,-0.46 -0.57,-0.6 1.86,-0.77l1.92,-0.13l0.75,1.7c0.41,0.94 0.81,1.81 0.87,1.95c0.07,0.15 -0.26,0.05 -0.76,-0.24l-0.87,-0.5l-0.61,1.01c-0.34,0.56 -0.62,1.06 -0.63,1.14c-0.01,0.07 1.02,0.16 2.3,0.19l2.31,0.05l0.15,1.43c0.09,0.79 0.13,1.45 0.11,1.46c-0.02,0.01 -1.11,0.08 -2.42,0.16l-2.38,0.13l-1.48,-2.16l-0.01,-0.01l0.01,-0.01l-0.02,0.01l0.01,-0.01l0,0.01zm9.1,2.11c-1.39,-1.8 -1.41,-1.67 0.65,-3.6l1.33,-1.25l-0.14,0.91l-0.14,0.91l1.5,0c0.83,0 1.5,-0.05 1.5,-0.12c0,-0.06 -0.46,-0.83 -1.01,-1.71c-0.56,-0.87 -1.01,-1.66 -1.01,-1.74c0.01,-0.19 2.92,-1.85 3.06,-1.73c0.06,0.04 0.6,0.87 1.2,1.85l1.1,1.77l-1.49,2.03c-0.82,1.12 -1.59,2.15 -1.74,2.28c-0.14,0.13 -0.94,0.3 -1.77,0.37c-1.58,0.12 -1.55,0.09 -1.77,1.25c-0.04,0.19 -0.51,-0.26 -1.27,-1.22l-0.02,0.01l0.02,0l-0.01,0l0.01,0.01l0,-0.01l0,-0.01z" fill="#2b2d2d" id="svg_26" opacity="0.8" stroke="#000000" stroke-opacity="0"/>
    <rect fill="red" height="8.85" id="svg_32" opacity="0.8" stroke="#000000" stroke-opacity="0" transform="rotate(0.96991 -429.054 -32.7667) matrix(0.929752 -0.214417 0.200463 0.994471 -0.57902 6.04505)" width="37.9" x="-451.29" y="-136.67"/>
   </g>
  </g>
  <rect fill="#fefefe" height="1" id="svg_49" stroke="#b2b2b2" transform="matrix(1 0 0 1 0 0)" width="19" x="392.5" y="160.75"/>
  <rect fill="red" height="1" id="svg_50" stroke="#b2b2b2" transform="matrix(1 0 0 1 0 0)" width="19" x="392.5" y="160.75"/>
  <g id="svg_53">
   <path d="m-166.5,145.75c6.43,-5.58 9.28,-14.25 18.29,-20.25c9.01,-6 17.63,-6.33 24.53,-2c6.89,4.33 9.79,11.17 18.18,22l-61,0.25z" fill="#4c4c4c" id="svg_42" stroke="#000000" stroke-opacity="0"/>
   <rect fill="#cccccc" height="1" id="svg_46" stroke="#b2b2b2" width="19" x="-144.5" y="130.25"/>
   <rect fill="#cccccc" height="1" id="svg_51" stroke="#b2b2b2" width="19" x="-144.5" y="130.25"/>
   <rect fill="#cccccc" height="1" id="svg_52" stroke="#b2b2b2" width="15" x="-142" y="135.75"/>
  </g>
  <polygon cx="16" cy="4.5" fill="#ffffff" id="svg_33" orient="point" point="5" points="205.25000095367432,71.23356212675571 208.12408828735352,82.68932914733887 219.20111083984375,82.07217407226562 209.90037155151367,88.53507614135742 213.8722629547119,99.60941886901855 205.25000095367432,92.14794540405273 196.62773942947388,99.60941886901855 200.59963035583496,88.53507614135742 191.29888939857483,82.07217407226562 202.37591361999512,82.68932914733887 205.25000095367432,71.23356212675571 208.12408828735352,82.68932914733887 " r="21.77" r2="7.26" radialshift="0" shape="star" starRadiusMultiplier="3" stroke="#000000" transform="matrix(1 0 0 1 0 0)"/>
 </g>
</svg>